HIERARCHY
ROOT Hips
{
	OFFSET 0.000000 0.000000 0.000000
	CHANNELS 6 Xposition Yposition Zposition Yrotation Xrotation Zrotation
	JOINT Chest
	{
		OFFSET 0.000000 -0.009281 11.569106
		CHANNELS 3 Yrotation Xrotation Zrotation
		JOINT Chest2
		{
			OFFSET -0.000000 0.016865 9.269641
			CHANNELS 3 Yrotation Xrotation Zrotation
			JOINT Chest3
			{
				OFFSET -0.000000 0.000001 8.374491
				CHANNELS 3 Yrotation Xrotation Zrotation
				JOINT Chest4
				{
					OFFSET -0.000000 0.000001 8.374493
					CHANNELS 3 Yrotation Xrotation Zrotation
					JOINT Neck
					{
						OFFSET -0.000000 0.000002 12.152554
						CHANNELS 3 Yrotation Xrotation Zrotation
						JOINT Head
						{
							OFFSET -0.000000 0.040101 7.802319
							CHANNELS 3 Yrotation Xrotation Zrotation
							End Site
							{
								OFFSET -0.000000 0.020947 14.853096
							}
						}
					}
					JOINT RightCollar
					{
						OFFSET 2.894404 0.000001 6.791374
						CHANNELS 3 Yrotation Xrotation Zrotation
						JOINT RightShoulder
						{
							OFFSET 13.574684 0.000001 0.000000
							CHANNELS 3 Yrotation Xrotation Zrotation
							JOINT RightElbow
							{
								OFFSET 23.923903 0.000002 0.000000
								CHANNELS 3 Yrotation Xrotation Zrotation
								JOINT RightWrist
								{
									OFFSET 19.846718 0.012767 0.000000
									CHANNELS 3 Yrotation Xrotation Zrotation
									End Site
									{
										OFFSET 14.973145 0.000001 0.000000
									}
								}
							}
						}
					}
					JOINT LeftCollar
					{
						OFFSET -2.894404 0.000001 6.791374
						CHANNELS 3 Yrotation Xrotation Zrotation
						JOINT LeftShoulder
						{
							OFFSET -13.574684 -0.000001 0.000000
							CHANNELS 3 Yrotation Xrotation Zrotation
							JOINT LeftElbow
							{
								OFFSET -23.923903 -0.000002 0.000000
								CHANNELS 3 Yrotation Xrotation Zrotation
								JOINT LeftWrist
								{
									OFFSET -19.846718 0.012763 0.000000
									CHANNELS 3 Yrotation Xrotation Zrotation
									End Site
									{
										OFFSET -14.973145 -0.000001 0.000000
									}
								}
							}
						}
					}
				}
			}
		}
	}
	JOINT RightHip
	{
		OFFSET 9.469263 0.004643 0.045487
		CHANNELS 3 Yrotation Xrotation Zrotation
		JOINT RightKnee
		{
			OFFSET 0.000000 0.002661 -40.478676
			CHANNELS 3 Yrotation Xrotation Zrotation
			JOINT RightAnkle
			{
				OFFSET 0.000000 0.049106 -35.224068
				CHANNELS 3 Yrotation Xrotation Zrotation
				JOINT RightToe
				{
					OFFSET -0.000001 12.539529 -6.151390
					CHANNELS 3 Yrotation Xrotation Zrotation
					End Site
					{
						OFFSET -0.000001 5.044994 -1.291870
					}
				}
			}
		}
	}
	JOINT LeftHip
	{
		OFFSET -9.469263 0.004641 0.045487
		CHANNELS 3 Yrotation Xrotation Zrotation
		JOINT LeftKnee
		{
			OFFSET 0.000000 0.002661 -40.478676
			CHANNELS 3 Yrotation Xrotation Zrotation
			JOINT LeftAnkle
			{
				OFFSET 0.000000 0.049106 -35.224068
				CHANNELS 3 Yrotation Xrotation Zrotation
				JOINT LeftToe
				{
					OFFSET -0.000001 12.539529 -6.151390
					CHANNELS 3 Yrotation Xrotation Zrotation
					End Site
					{
						OFFSET -0.000001 5.044994 -1.291870
					}
				}
			}
		}
	}
}
MOTION
Frames: 15
Frame Time: 0.016667
9.277768 7.078576 83.098999 -5.024861 -1.639952 -106.129064 -1.840130 -5.426067 3.067535 -0.767853 -2.420805 1.336808 -0.767853 -2.420806 1.336806 -0.570509 -1.817297 0.999414 1.180969 -24.769611 1.457536 2.470840 -9.857963 2.898864 10.286168 0.792303 -5.309562 59.810601 20.212142 2.069052 -6.816767 -30.704251 15.982713 -42.439394 14.592358 38.808554 -8.697511 -2.358811 -5.352431 -59.104168 27.373117 -8.407362 0.533905 -6.857655 -3.957991 44.933130 1.480208 -49.071077 -0.793652 -4.351237 -1.112233 2.738648 -5.488793 -10.385159 -1.546650 4.097921 1.305408 0.004443 0.072222 0.017384 -0.321642 -5.889495 1.780204 0.149447 -3.431598 -0.164964 -0.604568 4.234521 0.240553 0.260834 -0.003619 -0.014718 
9.313216 7.085453 83.102844 -4.832564 -1.602644 -106.096498 -1.884557 -5.583073 3.086016 -0.785186 -2.491272 1.339913 -0.785186 -2.491272 1.339916 -0.583336 -1.870189 1.001577 1.187854 -24.715287 1.554160 2.508088 -9.760495 3.074867 10.337548 1.230170 -5.258287 58.687984 20.697087 0.409601 -6.219618 -29.632086 15.474159 -39.830620 12.885648 38.035476 -8.717403 -1.794105 -5.189089 -57.559589 27.761729 -6.766614 -0.062263 -6.949129 -4.363756 41.330383 0.185077 -45.622607 -0.770595 -4.207865 -0.988805 2.717773 -5.422309 -10.471173 -1.529028 4.050365 1.255644 0.012383 0.083356 0.016618 -0.273512 -5.789897 1.917809 0.087703 -3.270048 -0.187692 -0.677091 4.159663 0.116874 0.290161 -0.008300 -0.013383 
9.336834 7.090558 83.108879 -4.632347 -1.563877 -106.087557 -1.909814 -5.732633 3.068891 -0.795252 -2.558870 1.328078 -0.795251 -2.558871 1.328079 -0.590780 -1.920894 0.992564 1.164238 -24.679012 1.684351 2.498533 -9.696711 3.303171 10.264650 1.663104 -5.109553 57.442547 21.382717 -1.315479 -5.316941 -28.281899 15.019461 -36.412667 11.334603 36.941672 -8.740807 -1.331572 -4.862561 -55.924865 28.245578 -5.156023 -0.749021 -6.719328 -5.275374 35.780219 -1.486692 -41.358824 -0.740574 -4.034234 -0.839230 2.684899 -5.378122 -10.560128 -1.508077 3.998246 1.211095 0.019017 0.096136 0.017153 -0.228288 -5.671283 2.011465 0.034820 -3.120039 -0.162343 -0.761835 4.077392 0.005931 0.315410 -0.006954 -0.011950 
9.351917 7.095533 83.117294 -4.439379 -1.522382 -106.096648 -1.960895 -5.897387 3.069108 -0.816235 -2.633373 1.325199 -0.816234 -2.633374 1.325198 -0.606358 -1.976815 0.990207 1.158301 -24.636175 1.816590 2.521444 -9.621601 3.539673 10.101944 2.167046 -4.982227 56.102682 22.129579 -3.105940 -3.935746 -26.392387 14.502681 -32.502862 9.629329 35.521109 -8.598952 -0.988075 -4.439560 -54.201011 29.018305 -3.666315 -1.547340 -6.244114 -6.295947 28.819672 -2.579743 -36.848901 -0.713191 -3.854694 -0.704944 2.646919 -5.344273 -10.641820 -1.480871 3.942403 1.184721 0.019103 0.108315 0.017327 -0.190910 -5.547912 2.052271 -0.016538 -2.982967 -0.117812 -0.837835 3.988304 -0.061110 0.328631 0.001544 -0.011800 
9.360058 7.105670 83.125656 -4.257408 -1.482922 -106.116599 -2.022218 -6.087710 3.091228 -0.840145 -2.719611 1.333094 -0.840145 -2.719610 1.333093 -0.624058 -2.041557 0.995893 1.161975 -24.583639 1.938150 2.559384 -9.528640 3.759696 9.880946 2.725963 -4.936104 54.790401 22.692735 -4.794826 -2.523961 -24.049888 13.944511 -28.598103 7.863810 33.764279 -8.463832 -0.494356 -4.088931 -52.276379 29.784819 -2.256211 -2.496296 -5.622823 -6.908388 22.778281 -3.027842 -32.498385 -0.696237 -3.681635 -0.611136 2.613425 -5.307997 -10.697881 -1.443948 3.881721 1.186218 0.010709 0.116023 0.015750 -0.165056 -5.431763 2.058176 -0.057790 -2.842911 -0.057918 -0.898456 3.889790 -0.102031 0.326219 0.011592 -0.012940 
9.361768 7.121742 83.131523 -4.080693 -1.451138 -106.152792 -2.061719 -6.298004 3.103689 -0.853908 -2.814119 1.336512 -0.853908 -2.814120 1.336516 -0.634147 -2.112474 0.998250 1.137890 -24.538952 2.070730 2.550190 -9.449658 3.992511 9.538780 3.281971 -5.054809 53.633036 23.017591 -6.212847 -1.215557 -21.259059 13.345549 -24.478828 6.388249 31.799045 -8.418395 0.248773 -3.713742 -50.280933 30.127339 -0.911080 -3.324425 -4.545978 -7.319203 18.143182 -3.783661 -28.473839 -0.681509 -3.511916 -0.544083 2.586525 -5.266250 -10.729780 -1.403151 3.817114 1.199324 -0.002596 0.118258 0.012839 -0.140751 -5.318343 2.067074 -0.095222 -2.705660 0.015000 -0.941932 3.794366 -0.146285 0.312152 0.016306 -0.012733 
9.361427 7.137051 83.134743 -3.910485 -1.426764 -106.195829 -2.093291 -6.513361 3.122421 -0.864888 -2.909183 1.343558 -0.864889 -2.909183 1.343558 -0.642130 -2.183805 1.003333 1.103504 -24.514333 2.205306 2.522470 -9.407668 4.225875 9.179344 3.805395 -5.184229 52.460562 23.474599 -7.495551 0.226978 -17.809715 12.783606 -19.922508 4.796389 29.205151 -8.365947 1.112813 -3.331252 -48.350796 30.319838 0.442553 -3.914615 -3.186664 -7.818343 13.699226 -4.373873 -24.049111 -0.660959 -3.357354 -0.507390 2.553732 -5.209315 -10.743381 -1.354977 3.751386 1.235041 -0.018411 0.113531 0.009660 -0.113424 -5.215864 2.096001 -0.127051 -2.562793 0.086605 -0.977777 3.702207 -0.205570 0.291988 0.014741 -0.010020 
9.359723 7.150571 83.136894 -3.739152 -1.402997 -106.247397 -2.125689 -6.732105 3.120634 -0.877293 -3.005535 1.342370 -0.877293 -3.005535 1.342371 -0.651216 -2.256096 1.002231 1.048045 -24.498461 2.366536 2.463294 -9.382072 4.501616 8.877563 4.331793 -5.187801 51.022189 24.200450 -8.759626 2.024591 -13.684106 12.223401 -14.719845 3.265412 25.739110 -8.276788 1.889891 -2.970718 -46.364724 31.071668 1.755679 -4.429101 -1.784015 -8.448196 8.403088 -4.391851 -18.945288 -0.631641 -3.210010 -0.484888 2.508928 -5.133770 -10.748330 -1.302943 3.679547 1.274844 -0.033609 0.105596 0.008158 -0.089110 -5.110514 2.134784 -0.150702 -2.425688 0.140859 -1.006608 3.615449 -0.248065 0.267585 0.012452 -0.008408 
9.355750 7.161360 83.141380 -3.563450 -1.376190 -106.305426 -2.162895 -6.946462 3.113639 -0.892344 -3.100675 1.338465 -0.892344 -3.100676 1.338463 -0.662302 -2.327480 0.999074 0.981114 -24.487403 2.543919 2.387394 -9.365591 4.803352 8.511106 5.176122 -5.410558 49.407997 24.659548 -10.093066 3.967642 -9.301123 11.668185 -9.456428 2.219015 21.802742 -8.082324 2.549689 -2.606243 -44.372539 32.301563 2.880462 -5.051694 0.040599 -8.937778 2.381837 -3.579472 -13.572881 -0.597791 -3.052836 -0.446744 2.456549 -5.061838 -10.769710 -1.245371 3.609466 1.330563 -0.048367 0.097289 0.007936 -0.068412 -4.998160 2.208458 -0.165122 -2.291620 0.146197 -1.034230 3.531040 -0.271302 0.243217 0.009940 -0.006775 
9.347365 7.170471 83.147820 -3.394664 -1.348300 -106.363278 -2.198021 -7.171629 3.116283 -0.906837 -3.201614 1.337666 -0.906837 -3.201614 1.337666 -0.672942 -2.403215 0.998235 0.913453 -24.466200 2.719090 2.310061 -9.330161 5.101223 8.145126 6.285373 -5.780012 47.679918 24.716344 -11.469349 5.738352 -4.804023 11.248822 -4.477336 1.464665 17.777714 -7.795286 3.354617 -2.124986 -42.342634 33.433516 3.909450 -5.865044 2.536569 -9.172628 -3.423117 -2.312419 -8.502313 -0.568248 -2.896162 -0.397780 2.411934 -5.000905 -10.807846 -1.187896 3.547952 1.381969 -0.063093 0.089662 0.007314 -0.049341 -4.879042 2.300675 -0.176385 -2.180045 0.119583 -1.057143 3.456627 -0.285248 0.218341 0.008199 -0.004343 
9.335206 7.179946 83.154869 -3.242084 -1.321440 -106.411970 -2.228157 -7.423459 3.116359 -0.918841 -3.314587 1.336189 -0.918841 -3.314586 1.336189 -0.681688 -2.487970 0.996876 0.838842 -24.422166 2.893077 2.220989 -9.251993 5.395861 7.778736 7.063473 -6.042076 46.106297 24.887447 -12.556882 7.121536 -0.368685 11.006786 0.495203 0.824551 13.658237 -7.580318 4.390054 -1.668659 -40.088726 34.239943 5.065577 -6.653029 5.303198 -9.289073 -8.466582 -1.365696 -4.022011 -0.547323 -2.751647 -0.357992 2.378160 -4.943801 -10.853340 -1.133144 3.492153 1.450720 -0.076628 0.080647 0.005451 -0.033049 -4.759544 2.373403 -0.186706 -2.094531 0.089086 -1.070364 3.392002 -0.288646 0.191083 0.008220 -0.002055 
9.317486 7.191367 83.160751 -3.108066 -1.299657 -106.454256 -2.255282 -7.692647 3.114142 -0.929085 -3.435262 1.334144 -0.929085 -3.435262 1.334144 -0.689102 -2.578496 0.995084 0.760585 -24.354785 3.065806 2.126231 -9.130234 5.687954 7.488718 7.605866 -6.177732 44.511496 25.295891 -13.487390 8.014313 3.528927 10.828770 5.563118 0.395424 9.518290 -7.411681 5.406509 -1.302030 -37.674914 34.941233 6.331438 -7.175186 7.621360 -9.438399 -12.799994 -1.063311 -0.437489 -0.528498 -2.621152 -0.327594 2.350533 -4.892501 -10.898280 -1.080803 3.442655 1.518274 -0.088845 0.069776 0.003282 -0.022118 -4.636227 2.409011 -0.188871 -2.047121 0.088326 -1.077125 3.346413 -0.287199 0.162131 0.006367 -0.000236 
9.293140 7.205980 83.164513 -2.989780 -1.281051 -106.488755 -2.287656 -7.962504 3.106667 -0.941653 -3.556046 1.330283 -0.941654 -3.556046 1.330284 -0.698268 -2.669106 0.991911 0.685758 -24.273941 3.236466 2.037932 -8.983600 5.977554 7.167071 8.121393 -6.392129 42.892744 25.684814 -14.373556 8.602231 6.694398 10.647540 10.119859 -0.140778 5.728109 -7.216768 6.196142 -0.882989 -35.347417 35.606661 7.452396 -7.271191 9.051204 -9.626297 -16.607339 -1.135196 1.995999 -0.512310 -2.494899 -0.312865 2.326510 -4.857065 -10.938388 -1.028862 3.402099 1.572693 -0.099726 0.056939 0.000943 -0.017712 -4.510163 2.407826 -0.180624 -2.025498 0.108195 -1.082649 3.311056 -0.279377 0.134689 0.003074 0.001493 
9.260392 7.220987 83.166527 -2.894418 -1.266618 -106.513378 -2.322530 -8.247954 3.115002 -0.955757 -3.683519 1.333641 -0.955758 -3.683519 1.333639 -0.708527 -2.764747 0.994121 0.629317 -24.175916 3.382965 1.977662 -8.805041 6.228883 6.794876 8.856164 -6.756411 41.170212 25.783098 -15.343670 8.930520 9.037158 10.389116 14.179693 -0.743583 2.394645 -6.887304 6.827128 -0.298958 -33.410157 36.005035 8.237678 -6.984069 9.761187 -9.847726 -20.008778 -1.088846 3.465681 -0.496184 -2.371099 -0.304237 2.300962 -4.856280 -10.968175 -0.977559 3.378477 1.617614 -0.106717 0.043150 0.000211 -0.012713 -4.393376 2.370066 -0.175529 -2.018900 0.144851 -1.081389 3.281639 -0.262203 0.108366 -0.003284 0.003139 
9.220566 7.238136 83.167999 -2.814043 -1.255979 -106.531908 -2.346948 -8.551749 3.149631 -0.964660 -3.818975 1.348086 -0.964659 -3.818976 1.348085 -0.714795 -2.866383 1.004657 0.586978 -24.062903 3.492632 1.934481 -8.597865 6.418100 6.436871 9.609048 -7.104817 39.474170 25.704978 -16.324516 8.972088 10.873950 10.087234 17.813043 -1.169620 -0.572402 -6.591010 7.495715 0.244615 -31.593382 36.076984 8.962344 -6.619367 10.403367 -10.220287 -23.066751 -0.762173 4.840450 -0.481950 -2.247939 -0.298401 2.282266 -4.875573 -10.977190 -0.935531 3.359381 1.632262 -0.109315 0.032183 -0.000724 -0.012242 -4.282420 2.333852 -0.160566 -2.019448 0.169474 -1.082168 3.253224 -0.238625 0.085415 -0.011101 0.004395 
